<svg xmlns="http://www.w3.org/2000/svg" aria-hidden="true" style="position:absolute;width:0;height:0;overflow:hidden"><defs>

<symbol id="icon-mail" viewBox="0 0 32 32"><path stroke-linecap="round" stroke-linejoin="round" stroke-width="1.333" d="M5.333 5.333h21.333A2.667 2.667 0 0 1 29.333 8v16a2.667 2.667 0 0 1-2.667 2.667H5.333A2.667 2.667 0 0 1 2.666 24V8a2.667 2.667 0 0 1 2.667-2.667z"/><path stroke-linecap="round" stroke-linejoin="round" stroke-width="1.333" d="m29.333 9.333-11.96 7.6c-.39.248-.864.395-1.373.395s-.984-.147-1.384-.401l.011.006-11.96-7.6"/></symbol>

<symbol id="icon-smartphone" viewBox="0 0 32 32"><path stroke-linecap="round" stroke-linejoin="round" stroke-width="1.333" d="M9.333 2.667h13.333a2.667 2.667 0 0 1 2.667 2.667v21.333a2.667 2.667 0 0 1-2.667 2.667H9.333a2.667 2.667 0 0 1-2.667-2.667V5.334a2.667 2.667 0 0 1 2.667-2.667zM16 24h.013"/></symbol>

<symbol id="icon-calendar" viewBox="0 0 32 32"><path stroke-linecap="round" stroke-linejoin="round" stroke-width="1.333" d="M10.667 2.667V8M21.333 2.667V8M6.667 5.333h18.667A2.667 2.667 0 0 1 28.001 8v18.667a2.667 2.667 0 0 1-2.667 2.667H6.667A2.667 2.667 0 0 1 4 26.667V8a2.667 2.667 0 0 1 2.667-2.667zM4 13.333h24M10.667 18.667h.013M16 18.667h.013M21.333 18.667h.013M10.667 24h.013M16 24h.013M21.333 24h.013"/></symbol>

<symbol id="icon-geo" viewBox="0 0 32 32"><path stroke-linecap="round" stroke-linejoin="round" stroke-width="1.333" d="M26.667 13.333c0 6.657-7.385 13.591-9.865 15.732a1.333 1.333 0 0 1-1.606-.002l.003.002c-2.48-2.141-9.865-9.075-9.865-15.732 0-5.891 4.776-10.667 10.667-10.667s10.667 4.776 10.667 10.667"/><path stroke-linecap="round" stroke-linejoin="round" stroke-width="1.333" d="M20 13.333a4 4 0 1 1-8 0 4 4 0 0 1 8 0z"/></symbol>

<symbol id="icon-book" viewBox="0 0 32 32"><path stroke-linecap="round" stroke-linejoin="round" stroke-width="1.333" d="M2.667 4h8A5.333 5.333 0 0 1 16 9.333V28a4 4 0 0 0-4-4H2.667zM29.333 4h-8A5.333 5.333 0 0 0 16 9.333V28a4 4 0 0 1 4-4h9.333zM8 10.667h2.667M8 16h2.667M21.333 10.667H24M21.333 16H24"/></symbol>

<symbol id="icon-eye" viewBox="0 0 32 32"><path stroke-linecap="round" stroke-linejoin="round" stroke-width="1.333" d="M2.749 16.464a1.346 1.346 0 0 1 .003-.937l-.003.009C4.955 10.287 10.055 6.668 16 6.668s11.044 3.619 13.215 8.774l.035.094a1.346 1.346 0 0 1-.003.937l.003-.009c-2.206 5.249-7.306 8.868-13.251 8.868S4.955 21.713 2.784 16.558l-.035-.094"/><path stroke-linecap="round" stroke-linejoin="round" stroke-width="1.333" d="M20 16a4 4 0 1 1-8 0 4 4 0 0 1 8 0z"/></symbol>

<symbol id="icon-instagram" viewBox="0 0 32 32"><path stroke-linecap="round" stroke-linejoin="round" stroke-width="1.333" d="M9.333 2.667h13.333a6.667 6.667 0 0 1 6.667 6.667v13.333a6.667 6.667 0 0 1-6.667 6.667H9.333a6.667 6.667 0 0 1-6.667-6.667V9.334a6.667 6.667 0 0 1 6.667-6.667z"/><path stroke-linecap="round" stroke-linejoin="round" stroke-width="1.333" d="M21.333 15.16a5.333 5.333 0 1 1-4.463-4.49l-.03-.004a5.345 5.345 0 0 1 4.49 4.464l.004.03zM23.333 8.667h.013"/></symbol>

<symbol id="icon-linkedin" viewBox="0 0 32 32"><path stroke-linecap="round" stroke-linejoin="round" stroke-width="1.333" d="M21.333 10.667a8 8 0 0 1 8 8V28H24v-9.333a2.667 2.667 0 1 0-5.334 0V28h-5.333v-9.333a8 8 0 0 1 8-8zM2.667 12H8v16H2.667V12zM8 5.333a2.667 2.667 0 1 1-5.334 0 2.667 2.667 0 0 1 5.334 0z"/></symbol>

<symbol id="icon-telegram" viewBox="0 0 32 32"><path stroke-linecap="round" stroke-linejoin="round" stroke-width="1.333" d="M29.333 2.667 20 29.334l-5.333-12-12-5.333zM29.333 2.667 14.666 17.334"/></symbol>

</defs></svg>